<?xml-stylesheet href="circuit-style.css" type="text/css"?>
<svg class="circuit-header" width="2400px" height="50px"  viewBox="0 0 2400 40" version="1.1" xmlns="http://www.w3.org/2000/svg" xmlns:xlink="http://www.w3.org/1999/xlink">
  <defs>
    <linearGradient id="linear" x1="0%" y1="0%" x2="100%" y2="0%">
      <stop offset="0%"   stop-color="#148BB117"/>
      <stop offset="100%" stop-color="#DBE2E817"/>
    </linearGradient>
  </defs>
  <style>
   @media screen and (min-width: 750px) {
    .circuit-header .path {
      animation: draw 20s infinite;
      animation-timing-function: linear;
    }
    .circuit-header .path-01 {
      animation-delay: 0s;
    }
    .circuit-header .path-02 {
      animation-delay: 1s;
    }
    .circuit-header .path-03 {
      animation-delay: 2s;
    }
    .circuit-header .path-04 {
      animation-delay: 3s;
    }
    .circuit-header .path-05 {
      animation-delay: 4s;
    }

    @keyframes draw {
      0% {
      }
      100% {
      stroke-dashoffset: 0;
      stroke-opacity: 1;
      }
    }
  }
  </style>
  <g id="module-01" transform="translate(-1.000000, 0.000000)" class="path path-01" stroke="url(#linear)" stroke-width="4" fill="none" fill-rule="evenodd" stroke-linecap="butt" stroke-linejoin="round" stroke-opacity="1" stroke-dasharray="8,960,24,960,16,400" stroke-dashoffset="6400">
    <g id="C23" transform="translate(177.000000, 0.000000)">
      <polyline points="52 92 84 92 116 60 116 0"></polyline>
      <polyline points="52 84 80 84 108 56 108 0"></polyline>
      <polyline points="52 76 76 76 100 52 100 0"></polyline>
      <polyline points="52 68 72 68 92 48 92 0"></polyline>
      <polyline points="52 60 68 60 84 44 84 0"></polyline>
      <path d="M16,56 L16,0"></path>
      <path d="M8,56 L8,0"></path>
      <path d="M24,56 L24,0"></path>
      <path d="M32,56 L32,0"></path>
      <path d="M40,56 L40,0"></path>
      <path d="M48,56 L48,0"></path>
      <path d="M0,92 L4,92"></path>
      <polyline points="52 100 56 100 72 100 80.0156098 108.01561 80.0156098 124.007338"></polyline>
      <path d="M0,100 L4,100"></path>
      <path d="M0,84 L4,84"></path>
      <path d="M0,76 L4,76"></path>
      <path d="M0,68 L4,68"></path>
      <path d="M0,60 L4,60"></path>
      <polyline points="96 284 88 284 84 288 32 288 16 272 16 108 16 104"></polyline>
      <polyline points="104 439 104 372 8 276 8 108 8 104"></polyline>
      <polyline points="124 272 88 272 80 280 36 280 24 268 24 108 24 104"></polyline>
      <polyline points="68 268 36 268 32 264 32 108 32 104"></polyline>
      <polyline points="44.0311289 252.000061 44.0311289 244.031129 40 240 40 108 40 104"></polyline>
      <polyline points="48 108 48 104 48 184 56 192 60 192 64 192"></polyline>
    </g>
    <g id="C14" transform="translate(309.000000, 0.000000)">
      <polyline points="272 196 288 196 300 208 300 224 324 248 416 248 421 243 428 243"></polyline>
      <polyline points="272 188 292 188 308 204 308 220 328 240 412.005952 240 420.002977 232.002976 480 232.002976 493.001488 219.001488 494 218 494 171"></polyline>
      <path d="M272,180 L284,180"></path>
      <path d="M272,172 L284,172"></path>
      <polyline points="380.05579 370.996531 371.003473 370.996531 368.000001 367.993058 324.006943 367.993058 296.013886 340.000001 296.013886 267.013886 260 231 260 216"></polyline>
      <polyline points="-2.52347418e-05 167.966704 20.9667036 167.966704 36 183 136 183 165 212 224 212"></polyline>
      <polyline points="272 212 280 212 284 216 284 232 312 260 312 296 368 352 396 352 400 348 408 348"></polyline>
      <polyline points="272 204 284 204 292 212 292 227 320 255 320 292.013511 371.993245 344.006756 392.02464 344.006756 401.069416 334.96198 420.000038 334.96198"></polyline>
      <polyline points="248 360 248 356 265 339 265 320 248 303 248 267 228 247 228 216"></polyline>
      <polyline points="280 352 280 276 244 240 244 216"></polyline>
      <polyline points="223 196 172 196 144 168 144 0"></polyline>
      <polyline points="236 168 236 148 272 112 272 0"></polyline>
      <polyline points="224 204 169 204 136 171 136 0"></polyline>
      <polyline points="228 167 228 144 264 108 264 0"></polyline>
      <polyline points="264.003967 360.000001 264.003967 351.003969 272 343.007936 272 280 236 244 236 216"></polyline>
      <polyline points="295.996576 360.000001 295.996576 352.003425 288 344.006849 288 271 252 235 252 216"></polyline>
      <path d="M420.005435,359 L328,359 L304,335 L304,264 L268,228 L268,216"></path>
      <polyline points="224.010169 188.022424 177.017751 188.022424 152 163.004673 152 56 152 0"></polyline>
      <polyline points="244 168 244 152 280 116 280 0"></polyline>
      <polyline points="224 180 181 180 160 159 160 0"></polyline>
      <polyline points="252 168 252 156 288 120 288 0"></polyline>
      <polyline points="224 172 185 172 168 155 168 0"></polyline>
      <polyline points="260 168 260 160 296 124 296 0"></polyline>
      <polyline points="268 168 268 164 304 128 304 0"></polyline>
    </g>
  </g>
  <g id="module-02" transform="translate(599.000000, 0.000000)" class="path path-02" stroke="url(#linear)" stroke-width="4" fill="none" fill-rule="evenodd" stroke-linecap="butt" stroke-linejoin="round" stroke-opacity="1" stroke-dasharray="8,960,24,960,16,400" stroke-dashoffset="6400">
    <g id="C12" transform="translate(377.000000, 0.000000)">
      <polyline points="52 92 84 92 116 60 116 0"></polyline>
      <polyline points="52 84 80 84 108 56 108 0"></polyline>
      <polyline points="52 76 76 76 100 52 100 0"></polyline>
      <polyline points="52 68 72 68 92 48 92 0"></polyline>
      <polyline points="52 60 68 60 84 44 84 0"></polyline>
      <path d="M16,56 L16,0"></path>
      <path d="M8,56 L8,0"></path>
      <path d="M24,56 L24,0"></path>
      <path d="M32,56 L32,0"></path>
      <path d="M40,56 L40,0"></path>
      <path d="M48,56 L48,0"></path>
      <path d="M0,92 L4,92"></path>
      <polyline points="52 100 56 100 72 100 80.0156098 108.01561 80.0156098 124.007338"></polyline>
      <path d="M0,100 L4,100"></path>
      <path d="M0,84 L4,84"></path>
      <path d="M0,76 L4,76"></path>
      <path d="M0,68 L4,68"></path>
      <path d="M0,60 L4,60"></path>
      <polyline points="96 284 88 284 84 288 32 288 16 272 16 108 16 104"></polyline>
      <polyline points="104 439 104 372 8 276 8 108 8 104"></polyline>
      <polyline points="124 272 88 272 80 280 36 280 24 268 24 108 24 104"></polyline>
      <polyline points="68 268 36 268 32 264 32 108 32 104"></polyline>
      <polyline points="44.0311289 252.000061 44.0311289 244.031129 40 240 40 108 40 104"></polyline>
      <polyline points="48 108 48 104 48 184 56 192 60 192 64 192"></polyline>
    </g>
  </g>
 <g id="module-05" transform="translate(1908.000000, 0.000000)" class="path path-05" stroke="url(#linear)" stroke-width="4" fill="none" fill-rule="evenodd" stroke-linecap="butt" stroke-linejoin="round" stroke-opacity="1" stroke-dasharray="8,960,24,960,16,400" stroke-dashoffset="6400">
    <g id="C13">
      <polyline points="272 196 288 196 300 208 300 224 324 248 416 248 421 243 428 243"></polyline>
      <polyline points="272 188 292 188 308 204 308 220 328 240 412.005952 240 420.002977 232.002976 480 232.002976 493.001488 219.001488 494 218 494 171"></polyline>
      <path d="M272,180 L284,180"></path>
      <path d="M272,172 L284,172"></path>
      <polyline points="380.05579 370.996531 371.003473 370.996531 368.000001 367.993058 324.006943 367.993058 296.013886 340.000001 296.013886 267.013886 260 231 260 216"></polyline>
      <polyline points="-2.52347418e-05 167.966704 20.9667036 167.966704 36 183 136 183 165 212 224 212"></polyline>
      <polyline points="272 212 280 212 284 216 284 232 312 260 312 296 368 352 396 352 400 348 408 348"></polyline>
      <polyline points="272 204 284 204 292 212 292 227 320 255 320 292.013511 371.993245 344.006756 392.02464 344.006756 401.069416 334.96198 420.000038 334.96198"></polyline>
      <polyline points="248 360 248 356 265 339 265 320 248 303 248 267 228 247 228 216"></polyline>
      <polyline points="280 352 280 276 244 240 244 216"></polyline>
      <polyline points="223 196 172 196 144 168 144 0"></polyline>
      <polyline points="236 168 236 148 272 112 272 0"></polyline>
      <polyline points="224 204 169 204 136 171 136 0"></polyline>
      <polyline points="228 167 228 144 264 108 264 0"></polyline>
      <polyline points="264.003967 360.000001 264.003967 351.003969 272 343.007936 272 280 236 244 236 216"></polyline>
      <polyline points="295.996576 360.000001 295.996576 352.003425 288 344.006849 288 271 252 235 252 216"></polyline>
      <path d="M420.005435,359 L328,359 L304,335 L304,264 L268,228 L268,216"></path>
      <polyline points="224.010169 188.022424 177.017751 188.022424 152 163.004673 152 56 152 0"></polyline>
      <polyline points="244 168 244 152 280 116 280 0"></polyline>
      <polyline points="224 180 181 180 160 159 160 0"></polyline>
      <polyline points="252 168 252 156 288 120 288 0"></polyline>
      <polyline points="224 172 185 172 168 155 168 0"></polyline>
      <polyline points="260 168 260 160 296 124 296 0"></polyline>
      <polyline points="268 168 268 164 304 128 304 0"></polyline>
    </g>
  </g>



  <g id="static" transform="translate(48.000000, 56.000000)" stroke="#DDE0E20F" stroke-width="2" fill="none" fill-rule="evenodd" stroke-linecap="round" stroke-linejoin="round">
    <rect x="132" y="0" width="48" height="48" rx="4"></rect>
    <circle cx="172" cy="200" r="4"></circle>
    <circle cx="200" cy="212" r="4"></circle>
    <circle cx="228" cy="228" r="4"></circle>
    <circle cx="256" cy="216" r="4"></circle>
    <circle cx="208" cy="72" r="4"></circle>
    <rect x="484" y="112" width="48" height="48" rx="4"></rect>
    <circle cx="508" cy="308" r="4"></circle>
    <circle cx="524" cy="308" r="4"></circle>
    <circle cx="540" cy="300" r="4"></circle>
    <circle cx="556" cy="308" r="4"></circle>
    <circle cx="684" cy="279" r="4"></circle>
    <circle cx="684" cy="303" r="4"></circle>
    <circle cx="672" cy="292" r="4"></circle>
    <circle cx="754" cy="111" r="4"></circle>
    <circle cx="256" cy="112" r="4"></circle>
    <rect x="2084" y="112" width="48" height="48" rx="4"></rect>
    <circle cx="2108" cy="308" r="4"></circle>
    <circle cx="2124" cy="308" r="4"></circle>
    <circle cx="2140" cy="300" r="4"></circle>
    <circle cx="2156" cy="308" r="4"></circle>
    <circle cx="2284" cy="279" r="4"></circle>
    <circle cx="2284" cy="303" r="4"></circle>
    <circle cx="2272" cy="292" r="4"></circle>
    <circle cx="2354" cy="111" r="4"></circle>
    <circle cx="1856" cy="112" r="4"></circle>
    <rect x="932" y="0" width="48" height="48" rx="4"></rect>
    <circle cx="972" cy="200" r="4"></circle>
    <circle cx="1000" cy="212" r="4"></circle>
    <circle cx="1028" cy="228" r="4"></circle>
    <circle cx="1056" cy="216" r="4"></circle>
    <circle cx="1008" cy="72" r="4"></circle>
    <rect x="992" y="132" width="40" height="40" rx="4"></rect>
  </g>

  <g id="paths-bg" transform="translate(0.000000, 0.000000)" stroke="#DDE0E20F" stroke-width="2" fill="none" fill-rule="evenodd" stroke-linecap="round" stroke-linejoin="round">
    <g id="C23" transform="translate(176.000000, 0.000000)">
      <polyline id="path" points="52 92 84 92 116 60 116 0"></polyline>
      <polyline id="path" points="52 84 80 84 108 56 108 0"></polyline>
      <polyline id="path" points="52 76 76 76 100 52 100 0"></polyline>
      <polyline id="path" points="52 68 72 68 92 48 92 0"></polyline>
      <polyline id="path" points="52 60 68 60 84 44 84 0"></polyline>
      <path d="M16,56 L16,0" id="path"></path>
      <path d="M8,56 L8,0" id="path"></path>
      <path d="M24,56 L24,0" id="path"></path>
      <path d="M32,56 L32,0" id="path"></path>
      <path d="M40,56 L40,0" id="path"></path>
      <path d="M48,56 L48,0" id="path"></path>
      <path d="M0,92 L4,92" id="path"></path>
      <polyline id="path" points="52 100 56 100 72 100 80.0156098 108.01561 80.0156098 124.007338"></polyline>
      <path d="M0,100 L4,100" id="path"></path>
      <path d="M0,84 L4,84" id="path"></path>
      <path d="M0,76 L4,76" id="path"></path>
      <path d="M0,68 L4,68" id="path"></path>
      <path d="M0,60 L4,60" id="path"></path>
      <polyline id="path" points="96 284 88 284 84 288 32 288 16 272 16 108 16 104"></polyline>
      <polyline id="path" points="104 439 104 372 8 276 8 108 8 104"></polyline>
      <polyline id="path" points="124 272 88 272 80 280 36 280 24 268 24 108 24 104"></polyline>
      <polyline id="path" points="68 268 36 268 32 264 32 108 32 104"></polyline>
      <polyline id="path" points="44.0311289 252.000061 44.0311289 244.031129 40 240 40 108 40 104"></polyline>
      <polyline id="path" points="48 108 48 104 48 184 56 192 60 192 64 192"></polyline>
    </g>
    <g id="C14" transform="translate(308.000000, 0.000000)">
      <polyline id="path" points="272 196 288 196 300 208 300 224 324 248 416 248 421 243 428 243"></polyline>
      <polyline id="path" points="272 188 292 188 308 204 308 220 328 240 412.005952 240 420.002977 232.002976 480 232.002976 493.001488 219.001488 494 218 494 171"></polyline>
      <path d="M272,180 L284,180" id="path"></path>
      <path d="M272,172 L284,172" id="path"></path>
      <polyline id="path" points="380.05579 370.996531 371.003473 370.996531 368.000001 367.993058 324.006943 367.993058 296.013886 340.000001 296.013886 267.013886 260 231 260 216"></polyline>
      <polyline id="path" points="-2.52347418e-05 167.966704 20.9667036 167.966704 36 183 136 183 165 212 224 212"></polyline>
      <polyline id="path" points="272 212 280 212 284 216 284 232 312 260 312 296 368 352 396 352 400 348 408 348"></polyline>
      <polyline id="path" points="272 204 284 204 292 212 292 227 320 255 320 292.013511 371.993245 344.006756 392.02464 344.006756 401.069416 334.96198 420.000038 334.96198"></polyline>
      <polyline id="path" points="248 360 248 356 265 339 265 320 248 303 248 267 228 247 228 216"></polyline>
      <polyline id="path" points="280 352 280 276 244 240 244 216"></polyline>
      <polyline id="path" points="223 196 172 196 144 168 144 0"></polyline>
      <polyline id="path" points="236 168 236 148 272 112 272 0"></polyline>
      <polyline id="path" points="224 204 169 204 136 171 136 0"></polyline>
      <polyline id="path" points="228 167 228 144 264 108 264 0"></polyline>
      <polyline id="path" points="264.003967 360.000001 264.003967 351.003969 272 343.007936 272 280 236 244 236 216"></polyline>
      <polyline id="path" points="295.996576 360.000001 295.996576 352.003425 288 344.006849 288 271 252 235 252 216"></polyline>
      <path d="M420.005435,359 L328,359 L304,335 L304,264 L268,228 L268,216" id="path"></path>
      <polyline id="path" points="224.010169 188.022424 177.017751 188.022424 152 163.004673 152 56 152 0"></polyline>
      <polyline id="path" points="244 168 244 152 280 116 280 0"></polyline>
      <polyline id="path" points="224 180 181 180 160 159 160 0"></polyline>
      <polyline id="path" points="252 168 252 156 288 120 288 0"></polyline>
      <polyline id="path" points="224 172 185 172 168 155 168 0"></polyline>
      <polyline id="path" points="260 168 260 160 296 124 296 0"></polyline>
      <polyline id="path" points="268 168 268 164 304 128 304 0"></polyline>
    </g>
    <g id="C13" transform="translate(1908.000000, 0.000000)">
      <polyline id="path" points="272 196 288 196 300 208 300 224 324 248 416 248 421 243 428 243"></polyline>
      <polyline id="path" points="272 188 292 188 308 204 308 220 328 240 412.005952 240 420.002977 232.002976 480 232.002976 493.001488 219.001488 494 218 494 171"></polyline>
      <path d="M272,180 L284,180" id="path"></path>
      <path d="M272,172 L284,172" id="path"></path>
      <polyline id="path" points="380.05579 370.996531 371.003473 370.996531 368.000001 367.993058 324.006943 367.993058 296.013886 340.000001 296.013886 267.013886 260 231 260 216"></polyline>
      <polyline id="path" points="-2.52347418e-05 167.966704 20.9667036 167.966704 36 183 136 183 165 212 224 212"></polyline>
      <polyline id="path" points="272 212 280 212 284 216 284 232 312 260 312 296 368 352 396 352 400 348 408 348"></polyline>
      <polyline id="path" points="272 204 284 204 292 212 292 227 320 255 320 292.013511 371.993245 344.006756 392.02464 344.006756 401.069416 334.96198 420.000038 334.96198"></polyline>
      <polyline id="path" points="248 360 248 356 265 339 265 320 248 303 248 267 228 247 228 216"></polyline>
      <polyline id="path" points="280 352 280 276 244 240 244 216"></polyline>
      <polyline id="path" points="223 196 172 196 144 168 144 0"></polyline>
      <polyline id="path" points="236 168 236 148 272 112 272 0"></polyline>
      <polyline id="path" points="224 204 169 204 136 171 136 0"></polyline>
      <polyline id="path" points="228 167 228 144 264 108 264 0"></polyline>
      <polyline id="path" points="264.003967 360.000001 264.003967 351.003969 272 343.007936 272 280 236 244 236 216"></polyline>
      <polyline id="path" points="295.996576 360.000001 295.996576 352.003425 288 344.006849 288 271 252 235 252 216"></polyline>
      <path d="M420.005435,359 L328,359 L304,335 L304,264 L268,228 L268,216" id="path"></path>
      <polyline id="path" points="224.010169 188.022424 177.017751 188.022424 152 163.004673 152 56 152 0"></polyline>
      <polyline id="path" points="244 168 244 152 280 116 280 0"></polyline>
      <polyline id="path" points="224 180 181 180 160 159 160 0"></polyline>
      <polyline id="path" points="252 168 252 156 288 120 288 0"></polyline>
      <polyline id="path" points="224 172 185 172 168 155 168 0"></polyline>
      <polyline id="path" points="260 168 260 160 296 124 296 0"></polyline>
      <polyline id="path" points="268 168 268 164 304 128 304 0"></polyline>
    </g>
    <g id="C12" transform="translate(976.000000, 0.000000)">
      <polyline id="path" points="52 92 84 92 116 60 116 0"></polyline>
      <polyline id="path" points="52 84 80 84 108 56 108 0"></polyline>
      <polyline id="path" points="52 76 76 76 100 52 100 0"></polyline>
      <polyline id="path" points="52 68 72 68 92 48 92 0"></polyline>
      <polyline id="path" points="52 60 68 60 84 44 84 0"></polyline>
      <path d="M16,56 L16,0" id="path"></path>
      <path d="M8,56 L8,0" id="path"></path>
      <path d="M24,56 L24,0" id="path"></path>
      <path d="M32,56 L32,0" id="path"></path>
      <path d="M40,56 L40,0" id="path"></path>
      <path d="M48,56 L48,0" id="path"></path>
      <path d="M0,92 L4,92" id="path"></path>
      <polyline id="path" points="52 100 56 100 72 100 80.0156098 108.01561 80.0156098 124.007338"></polyline>
      <path d="M0,100 L4,100" id="path"></path>
      <path d="M0,84 L4,84" id="path"></path>
      <path d="M0,76 L4,76" id="path"></path>
      <path d="M0,68 L4,68" id="path"></path>
      <path d="M0,60 L4,60" id="path"></path>
      <polyline id="path" points="96 284 88 284 84 288 32 288 16 272 16 108 16 104"></polyline>
      <polyline id="path" points="104 439 104 372 8 276 8 108 8 104"></polyline>
      <polyline id="path" points="124 272 88 272 80 280 36 280 24 268 24 108 24 104"></polyline>
      <polyline id="path" points="68 268 36 268 32 264 32 108 32 104"></polyline>
      <polyline id="path" points="44.0311289 252.000061 44.0311289 244.031129 40 240 40 108 40 104"></polyline>
      <polyline id="path" points="48 108 48 104 48 184 56 192 60 192 64 192"></polyline>
    </g>
  </g>
</svg>